<?xml version="1.0" encoding="iso-8859-1"?>
<!-- Generator: Adobe Illustrator 19.0.0, SVG Export Plug-In . SVG Version: 6.00 Build 0)  -->
<svg version="1.1" id="Capa_1" xmlns="http://www.w3.org/2000/svg" xmlns:xlink="http://www.w3.org/1999/xlink" x="0px" y="0px"
	 viewBox="0 0 470 470" style="enable-background:new 0 0 470 470;" xml:space="preserve">
<g>
<path d="M82.132 273.404V253.797C71.462 250.571 63.669 240.651 63.669 228.943V153.446C51.869 178.172 45.252 205.827 45.252 235.001C45.252 259.65 49.973 283.217 58.554 304.848C61.848 291.461 70.515 280.175 82.132 273.404Z" fill="#4863F7"/>
<path d="M387.902 301.885V347.997C398.307 333.978 406.823 318.48 413.085 301.885H387.902Z" fill="#4863F7"/>
<path d="M300.089 413.602C287.159 402.695 279.544 386.788 279.544 369.453V322.688H260.46C243.106 322.688 228.986 308.569 228.986 291.214C228.986 273.859 243.105 259.74 260.46 259.74H387.475V245.8C374.006 243.571 362.12 235.424 355.195 223.554C342.995 223.554 309.706 223.554 296.71 223.554C291.108 236.144 278.541 244.522 264.377 244.522C244.862 244.522 228.986 228.646 228.986 209.131V187.732C228.986 183.59 232.344 180.232 236.486 180.232H284.769V166.291C284.769 152.98 295.049 140.813 308.172 138.59C308.586 138.52 309.005 138.485 309.424 138.485H333.35V125.399H320.85C316.708 125.399 313.35 122.041 313.35 117.899C313.35 113.757 316.708 110.399 320.85 110.399H353.261L352.973 85.969C336.252 72.733 317.263 62.247 296.69 55.198C288.922 82.082 263.903 101.428 235.252 101.428C206.601 101.428 181.582 82.082 173.814 55.198C157.428 60.813 142.05 68.611 128.019 78.239H155.001C171.794 78.239 185.456 91.901 185.456 108.694C185.456 119.55 179.604 129.522 170.461 134.931V224.471C170.461 228.613 167.103 231.971 162.961 231.971C158.819 231.971 155.461 228.613 155.461 224.471V222.114C137.135 222.439 123.814 222.515 115.595 222.341V228.943C115.595 240.652 107.802 250.572 97.132 253.797V267.635C100.436 266.949 103.857 266.586 107.361 266.586C134.406 266.586 156.531 288.058 157.588 314.849H169.497C189.626 314.849 206.003 331.225 206.003 351.354C206.003 366.426 196.619 379.84 182.976 385.282V417.684C199.591 422.445 217.129 425 235.253 425C258.011 425 279.847 420.973 300.089 413.602ZM260.359 149.219C260.359 145.077 263.717 141.719 267.859 141.719C272.001 141.719 275.359 145.077 275.359 149.219V157.032C275.359 161.174 272.001 164.532 267.859 164.532C263.717 164.532 260.359 161.174 260.359 157.032V149.219Z" fill="#4863F7"/>
<path d="M372.902 365.835V294.385C372.902 290.243 376.26 286.885 380.402 286.885H418.051C422.74 270.387 425.252 252.981 425.252 235C425.252 181.911 403.356 133.847 368.131 99.3379L368.349 117.811C368.372 119.815 367.593 121.746 366.184 123.171C364.775 124.596 362.854 125.399 360.85 125.399H348.35V145.985C348.35 150.127 344.992 153.485 340.85 153.485H310.141C304.556 154.736 299.768 160.579 299.768 166.291V187.732C299.768 191.874 296.41 195.232 292.268 195.232H243.985V209.131C243.985 220.375 253.132 229.522 264.376 229.522C273.705 229.522 281.83 223.221 284.135 214.198L284.191 214.212C284.787 211.991 286.608 208.554 292.169 208.554L359.765 208.553C362.725 208.553 365.408 210.294 366.614 212.997C371.606 224.185 382.738 231.415 394.974 231.415C399.116 231.415 402.474 234.773 402.474 238.915V267.239C402.474 271.381 399.116 274.739 394.974 274.739H260.459C251.376 274.739 243.985 282.129 243.985 291.213C243.985 300.297 251.375 307.687 260.459 307.687H287.043C291.185 307.687 294.543 311.045 294.543 315.187V369.452C294.543 384.979 302.837 398.981 316.4 406.773C337.7 396.671 356.837 382.729 372.902 365.835Z" fill="#00B37E"/>
<path d="M188.187 50.903C194.079 71.552 213.267 86.428 235.252 86.428C257.237 86.428 276.425 71.551 282.317 50.903C267.261 47.052 251.492 45 235.252 45C219.012 45 203.243 47.052 188.187 50.903Z" fill="white"/>
<path d="M167.975 412.684V379.74C167.975 376.191 170.463 373.127 173.936 372.4C183.825 370.328 191.002 361.477 191.002 351.355C191.002 339.497 181.355 329.85 169.496 329.85H150.126C145.984 329.85 142.626 326.492 142.626 322.35V316.853C142.626 297.407 126.806 281.587 107.36 281.587C87.914 281.587 72.093 297.407 72.093 316.853V332.258C93.947 368.78 127.707 397.386 167.975 412.684Z" fill="#00B37E"/>
<path d="M89.632 239.906C95.677 239.906 100.595 234.988 100.595 228.943V214.472C100.595 212.153 101.667 209.965 103.5 208.544C105.248 207.19 107.5 206.678 109.651 207.135C113.068 207.569 134.353 207.467 155.461 207.109V130.23C155.461 127.091 157.416 124.284 160.36 123.195C166.399 120.962 170.456 115.135 170.456 108.695C170.456 100.174 163.523 93.24 155.001 93.24H108.894C97.5059 103.401 87.3479 114.908 78.6689 127.512V228.942C78.6689 234.988 83.587 239.906 89.632 239.906Z" fill="#00B37E"/>
<path d="M15.2371 220.488C22.7401 105.261 119.16 15 234.748 15C356.057 15 454.748 113.692 454.748 235C454.748 279.491 441.526 322.356 416.512 358.961C415.189 360.897 414.848 363.34 415.589 365.564L440.728 440.979L365.312 415.841C363.088 415.1 360.645 415.441 358.709 416.764C322.105 441.778 279.24 455 234.748 455C119.161 455 22.7401 364.739 15.2371 249.513C14.9701 245.42 11.4631 242.314 7.38406 242.514C7.30306 240.018 7.24707 237.515 7.24707 235C7.24707 232.484 7.30306 229.982 7.38406 227.486C11.4621 227.698 14.9701 224.582 15.2371 220.488ZM83.3421 373.062C83.7961 373.747 84.3611 374.349 85.0091 374.852C103.233 394.352 125.203 410.304 149.77 421.54C150.331 421.89 150.937 422.157 151.567 422.348C177.002 433.685 205.15 440 234.748 440C256.157 440 276.807 436.695 296.222 430.579C296.663 430.477 297.09 430.34 297.498 430.164C345.558 414.675 385.921 381.897 411.231 339.185C411.691 338.618 412.068 337.983 412.348 337.297C429.768 307.173 439.748 272.23 439.748 235C439.748 193.218 427.172 154.323 405.623 121.879C405.3 121.188 404.876 120.556 404.369 120C394.559 105.577 382.957 92.47 369.89 80.99C369.362 80.346 368.726 79.798 368.014 79.359C346.536 60.942 321.218 46.891 293.442 38.576C293.004 38.398 292.544 38.26 292.064 38.165C273.867 32.858 254.636 30 234.748 30C214.86 30 195.629 32.858 177.432 38.166C176.952 38.26 176.492 38.398 176.054 38.577C150.121 46.34 126.332 59.106 105.808 75.756C105.111 76.16 104.486 76.67 103.956 77.267C58.6491 114.9 29.748 171.637 29.748 235C29.748 256.233 32.9941 276.722 39.0141 295.998C39.1201 296.483 39.273 296.95 39.468 297.394C48.564 325.798 63.6891 351.528 83.3421 373.062Z" fill="#8257E5"/>
<path d="M440.252 235C440.252 171.636 411.351 114.9 366.044 77.267C365.514 76.669 364.888 76.16 364.192 75.756C343.669 59.106 319.88 46.34 293.946 38.577C293.508 38.399 293.048 38.261 292.568 38.166C274.371 32.858 255.14 30 235.252 30C215.364 30 196.133 32.858 177.936 38.166C177.456 38.26 176.996 38.398 176.558 38.577C148.782 46.892 123.464 60.943 101.986 79.36C101.274 79.799 100.638 80.347 100.11 80.991C87.044 92.469 75.441 105.577 65.632 120C65.124 120.557 64.7 121.188 64.378 121.879C42.828 154.323 30.252 193.218 30.252 235C30.252 272.23 40.232 307.173 57.651 337.298C57.931 337.984 58.308 338.619 58.768 339.186C84.079 381.897 124.441 414.676 172.501 430.165C172.908 430.341 173.336 430.478 173.777 430.58C193.192 436.696 213.842 440.001 235.251 440.001C264.849 440.001 292.996 433.686 318.432 422.349C319.062 422.158 319.668 421.891 320.229 421.541C344.795 410.306 366.766 394.353 384.99 374.853C385.638 374.351 386.203 373.748 386.657 373.063C406.311 351.529 421.435 325.799 430.531 297.396C430.726 296.951 430.879 296.484 430.985 296C437.006 276.722 440.252 256.233 440.252 235ZM235.252 86.429C213.267 86.429 194.079 71.552 188.187 50.904C203.243 47.052 219.012 45 235.252 45C251.492 45 267.261 47.052 282.317 50.903C276.425 71.552 257.237 86.429 235.252 86.429ZM72.094 316.853C72.094 297.407 87.914 281.587 107.361 281.587C126.807 281.587 142.627 297.407 142.627 316.853V322.35C142.627 326.492 145.985 329.85 150.127 329.85H169.497C181.355 329.85 191.003 339.497 191.003 351.355C191.003 361.477 183.826 370.328 173.937 372.4C170.463 373.128 167.976 376.191 167.976 379.74V412.684C127.708 397.386 93.948 368.779 72.095 332.257L72.094 316.853ZM108.894 93.24H155.001C163.522 93.24 170.456 100.173 170.456 108.695C170.456 115.135 166.399 120.962 160.36 123.195C157.416 124.284 155.461 127.091 155.461 130.23V207.109C134.353 207.467 113.067 207.569 109.651 207.135C107.5 206.678 105.248 207.19 103.5 208.544C101.667 209.965 100.595 212.153 100.595 214.472V228.943C100.595 234.988 95.677 239.906 89.632 239.906C83.587 239.906 78.669 234.988 78.669 228.943V127.513C87.348 114.908 97.506 103.401 108.894 93.24ZM63.669 153.445V228.942C63.669 240.651 71.462 250.57 82.132 253.796V273.403C70.516 280.174 61.848 291.46 58.554 304.846C49.973 283.216 45.252 259.649 45.252 235C45.252 205.826 51.869 178.171 63.669 153.445ZM182.975 385.282C196.619 379.84 206.002 366.427 206.002 351.354C206.002 331.225 189.626 314.849 169.496 314.849H157.587C156.531 288.058 134.406 266.586 107.36 266.586C103.856 266.586 100.435 266.949 97.131 267.635V253.797C107.801 250.571 115.594 240.652 115.594 228.943V222.341C123.813 222.515 137.135 222.439 155.46 222.114V224.471C155.46 228.613 158.818 231.971 162.96 231.971C167.102 231.971 170.46 228.613 170.46 224.471V134.931C179.603 129.521 185.455 119.55 185.455 108.694C185.455 91.901 171.793 78.239 155 78.239H128.018C142.049 68.611 157.427 60.812 173.813 55.198C181.581 82.082 206.6 101.428 235.251 101.428C263.902 101.428 288.921 82.082 296.689 55.198C317.262 62.247 336.251 72.733 352.972 85.969L353.26 110.399H320.85C316.708 110.399 313.35 113.757 313.35 117.899C313.35 122.041 316.708 125.399 320.85 125.399H333.35V138.485H309.424C309.005 138.485 308.586 138.52 308.172 138.59C295.048 140.813 284.769 152.98 284.769 166.291V180.232H236.486C232.344 180.232 228.986 183.59 228.986 187.732V209.131C228.986 228.646 244.862 244.522 264.377 244.522C278.541 244.522 291.108 236.144 296.71 223.554C309.706 223.554 342.995 223.554 355.195 223.554C362.12 235.424 374.006 243.571 387.475 245.8V259.74H260.459C243.105 259.74 228.985 273.859 228.985 291.214C228.985 308.569 243.104 322.688 260.459 322.688H279.543V369.453C279.543 386.788 287.158 402.695 300.088 413.602C279.847 420.973 258.011 425 235.252 425C217.128 425 199.59 422.446 182.975 417.684V385.282ZM316.401 406.773C302.838 398.981 294.544 384.979 294.544 369.452V315.187C294.544 311.045 291.186 307.687 287.044 307.687H260.46C251.377 307.687 243.986 300.297 243.986 291.213C243.986 282.129 251.376 274.739 260.46 274.739H327.717H394.975C399.117 274.739 402.475 271.381 402.475 267.239V238.915C402.475 234.773 399.117 231.415 394.975 231.415C382.739 231.415 371.606 224.186 366.615 212.997C365.409 210.294 362.726 208.553 359.766 208.553L292.17 208.554C286.609 208.554 284.788 211.992 284.192 214.212L284.136 214.198C281.831 223.22 273.706 229.522 264.377 229.522C253.133 229.522 243.986 220.375 243.986 209.131V195.232H292.269C296.411 195.232 299.769 191.874 299.769 187.732V166.291C299.769 160.579 304.557 154.736 310.142 153.485H340.851C344.993 153.485 348.351 150.127 348.351 145.985V125.399H360.851C362.855 125.399 364.776 124.597 366.185 123.171C367.594 121.745 368.373 119.815 368.35 117.811L368.132 99.338C403.356 133.847 425.253 181.911 425.253 235C425.253 252.981 422.741 270.387 418.052 286.885H380.403C376.261 286.885 372.903 290.243 372.903 294.385V365.835C356.837 382.729 337.7 396.671 316.401 406.773ZM387.902 301.885H413.085C406.823 318.48 398.306 333.978 387.902 347.997V301.885Z" fill="#1B873F"/>
<path d="M267.859 164.532C272.001 164.532 275.359 161.174 275.359 157.032V149.219C275.359 145.077 272.001 141.719 267.859 141.719C263.717 141.719 260.359 145.077 260.359 149.219V157.032C260.359 161.174 263.717 164.532 267.859 164.532Z" fill="#1B873F"/>
<path d="M7.26508 242.516C7.30508 242.513 7.34406 242.516 7.38406 242.514C11.4631 242.314 14.9701 245.42 15.2371 249.513C22.7401 364.739 119.16 455 234.748 455C279.24 455 322.105 441.778 358.709 416.765C360.645 415.442 363.088 415.101 365.312 415.842L440.728 440.98L415.589 365.565C414.848 363.341 415.189 360.898 416.512 358.962C441.526 322.356 454.748 279.491 454.748 235C454.748 113.691 356.057 15 234.748 15C119.161 15 22.7401 105.261 15.2371 220.488C14.9701 224.582 11.4621 227.698 7.38406 227.487C7.34406 227.485 7.30508 227.488 7.26508 227.485C3.13208 227.216 -0.000933588 223.647 0.268066 219.514C4.14007 160.05 30.2481 104.747 73.7821 63.794C117.513 22.656 174.678 0 234.748 0C297.519 0 356.532 24.444 400.918 68.83C445.304 113.216 469.748 172.229 469.748 235C469.748 281.271 456.357 325.898 430.985 364.316L459.702 450.465C460.6 453.16 459.899 456.131 457.89 458.14C455.882 460.149 452.91 460.85 450.215 459.952L364.065 431.236C325.648 456.609 281.02 470 234.748 470C174.679 470 117.514 447.344 73.7831 406.207C30.2491 365.254 4.14107 309.953 0.269073 250.488C-0.000926524 246.354 3.13208 242.786 7.26508 242.516Z" fill="#28203E"/>
</g>
</svg>
